<?xml version="1.0" encoding="utf-8"?>
<!-- Generator: Adobe Illustrator 24.1.2, SVG Export Plug-In . SVG Version: 6.00 Build 0)  -->
<svg version="1.0" id="Layer_1" xmlns="http://www.w3.org/2000/svg" xmlns:xlink="http://www.w3.org/1999/xlink" x="0px" y="0px"
	 viewBox="0 0 306.9 87.9" style="enable-background:new 0 0 306.9 87.9;" xml:space="preserve">
<style type="text/css">
	.st0{fill:#231F20;}
	.st1{fill:#A87C4F;}
</style>
<g id="BACKGROUND_00000073715582221978009720000012008410926332419715_">
	<g id="Capa_4">
	</g>
</g>
<g id="OBJECTS">
</g>
<g>
	<g>
		<path class="st0" d="M143.4,18.8h-1c-0.2,0-0.4,0.2-0.4,0.4v4.1h-4.9v-4.1c0-0.2-0.2-0.4-0.4-0.4h-1c-0.2,0-0.4,0.2-0.4,0.4v9.5
			c0,0.2,0.2,0.4,0.4,0.4h1c0.2,0,0.4-0.2,0.4-0.4v-3.9h4.9v3.9c0,0.2,0.2,0.4,0.4,0.4h1c0.2,0,0.4-0.2,0.4-0.4v-9.5
			C143.8,18.9,143.7,18.8,143.4,18.8z"/>
		<path class="st0" d="M147.5,18.8h-1c-0.2,0-0.4,0.2-0.4,0.4v9.5c0,0.2,0.2,0.4,0.4,0.4h1c0.2,0,0.4-0.2,0.4-0.4v-9.5
			C147.9,18.9,147.8,18.8,147.5,18.8z"/>
		<path class="st0" d="M158.6,23.5h-4c-0.2,0-0.4,0.2-0.4,0.4v0.7c0,0.2,0.2,0.4,0.4,0.4h2.6c0,0.8-0.3,1.5-0.8,2
			c-0.5,0.5-1.2,0.8-2,0.8c-0.8,0-1.5-0.3-2.1-1c-0.6-0.7-0.9-1.6-0.9-2.9c0-1.3,0.3-2.3,0.9-2.9c0.6-0.6,1.3-1,2.2-1
			c1.5,0,2.3,0.6,2.7,1.7c0.1,0.2,0.2,0.3,0.4,0.3h0.9c0.2,0,0.3-0.1,0.3-0.1c0.1-0.1,0.1-0.2,0.1-0.4c-0.2-1-0.7-1.7-1.5-2.3
			c-0.8-0.5-1.8-0.8-3-0.8c-1.4,0-2.6,0.5-3.5,1.4c-0.9,0.9-1.3,2.3-1.3,3.9c0,1.7,0.4,3,1.3,3.9c0.9,1,2,1.4,3.4,1.4
			c0.4,0,0.9-0.1,1.3-0.2c0.4-0.1,0.7-0.3,1-0.4c0.2-0.1,0.5-0.3,0.7-0.6c0,0,0,0,0.1-0.1l0.1,0.6c0,0.2,0.2,0.4,0.4,0.4h0.8
			c0.2,0,0.4-0.2,0.4-0.4v-4.8C159,23.7,158.8,23.5,158.6,23.5z"/>
		<path class="st0" d="M169.1,18.8h-1c-0.2,0-0.4,0.2-0.4,0.4v4.1h-4.9v-4.1c0-0.2-0.2-0.4-0.4-0.4h-1c-0.2,0-0.4,0.2-0.4,0.4v9.5
			c0,0.2,0.2,0.4,0.4,0.4h1c0.2,0,0.4-0.2,0.4-0.4v-3.9h4.9v3.9c0,0.2,0.2,0.4,0.4,0.4h1c0.2,0,0.4-0.2,0.4-0.4v-9.5
			C169.5,18.9,169.4,18.8,169.1,18.8z"/>
		<path class="st0" d="M185.5,27.8h-1.8c0.9-0.9,1.4-2.2,1.4-3.9c0-1.7-0.5-3-1.3-3.9c-0.9-1-2.1-1.4-3.5-1.4
			c-1.4,0-2.6,0.5-3.5,1.4c-0.9,0.9-1.3,2.3-1.3,3.9c0,1.7,0.5,3,1.3,3.9c0.9,1,2.1,1.4,3.5,1.4h5.3c0.2,0,0.4-0.2,0.4-0.4v-0.7
			C185.9,28,185.8,27.8,185.5,27.8z M182.4,26.9c-0.6,0.6-1.3,1-2.2,1c-0.9,0-1.6-0.3-2.2-1c-0.6-0.6-0.9-1.6-0.9-2.9
			c0-1.3,0.3-2.3,0.9-2.9c0.6-0.6,1.3-1,2.2-1c0.9,0,1.6,0.3,2.2,1c0.6,0.6,0.9,1.6,0.9,2.9C183.3,25.2,183,26.2,182.4,26.9z"/>
		<path class="st0" d="M194.9,18.8h-1c-0.2,0-0.4,0.2-0.4,0.4v5.8c0,1-0.2,1.7-0.7,2.2c-0.5,0.5-1.1,0.7-1.8,0.7
			c-0.8,0-1.4-0.2-1.8-0.7c-0.5-0.5-0.7-1.2-0.7-2.2v-5.8c0-0.2-0.2-0.4-0.4-0.4h-1c-0.2,0-0.4,0.2-0.4,0.4v5.8
			c0,1.4,0.4,2.4,1.2,3.2c0.8,0.8,1.8,1.2,3.1,1.2c1.3,0,2.3-0.4,3.1-1.2c0.8-0.8,1.2-1.9,1.2-3.2v-5.8
			C195.3,18.9,195.2,18.8,194.9,18.8z"/>
		<path class="st0" d="M201.3,18.8h-0.4c-0.4,0-0.7,0.2-0.9,0.6l-3.7,9.2l-0.1,0.2l0,0.1c0,0.1,0.1,0.3,0.4,0.3h1
			c0.2,0,0.4-0.1,0.5-0.3l0.9-2.2h4.1l0.9,2.3c0.1,0.2,0.3,0.3,0.4,0.3h1c0.3,0,0.4-0.2,0.4-0.3l-3.8-9.4
			C202,19,201.7,18.8,201.3,18.8z M199.5,25.1l1.5-3.7l1.5,3.7H199.5z"/>
		<path class="st0" d="M214.2,27.6H209v-8.4c0-0.2-0.2-0.4-0.4-0.4h-1c-0.2,0-0.4,0.2-0.4,0.4v9.5c0,0.2,0.2,0.4,0.4,0.4h6.7
			c0.2,0,0.4-0.2,0.4-0.4V28C214.6,27.8,214.5,27.6,214.2,27.6z"/>
		<path class="st0" d="M217,18.8h-1c-0.2,0-0.4,0.2-0.4,0.4v9.5c0,0.2,0.2,0.4,0.4,0.4h1c0.2,0,0.4-0.2,0.4-0.4v-9.5
			C217.4,18.9,217.3,18.8,217,18.8z"/>
		<path class="st0" d="M227,18.8h-8c-0.2,0-0.4,0.2-0.4,0.4v0.7c0,0.2,0.2,0.4,0.4,0.4h3v8.4c0,0.2,0.2,0.4,0.4,0.4h1
			c0.2,0,0.4-0.2,0.4-0.4v-8.4h3.2c0.2,0,0.4-0.2,0.4-0.4v-0.7C227.4,18.9,227.2,18.8,227,18.8z"/>
		<path class="st0" d="M236.5,18.8h-1c-0.2,0-0.4,0.1-0.5,0.3l-2.8,4.7l-2.8-4.7c-0.1-0.2-0.3-0.3-0.5-0.3h-1
			c-0.1,0-0.3,0.1-0.3,0.2l0,0.1l0,0.2l3.8,6.4v3.1c0,0.2,0.2,0.4,0.4,0.4h1c0.2,0,0.4-0.2,0.4-0.4v-3.1l3.8-6.3l0.1-0.1v-0.2
			C236.9,19,236.8,18.8,236.5,18.8z"/>
	</g>
	<g>
		<path class="st0" d="M145.6,62.2h5.8v8c-0.3,0.2-0.7,0.5-1.2,0.8c-0.5,0.3-1,0.5-1.6,0.7c-0.6,0.2-1.3,0.4-2.1,0.5
			c-0.8,0.1-1.6,0.2-2.6,0.2c-1.4,0-2.7-0.2-3.9-0.7c-1.2-0.5-2.1-1.2-2.9-2.2c-0.8-1-1.4-2.3-1.9-3.8c-0.4-1.6-0.7-3.5-0.7-5.8
			c0-2.2,0.2-4.2,0.7-5.7c0.4-1.6,1.1-2.9,1.9-3.9c0.8-1,1.8-1.7,2.9-2.2c1.2-0.5,2.4-0.7,3.8-0.7c1,0,1.8,0.1,2.6,0.2
			c0.8,0.1,1.4,0.3,2.1,0.5c0.6,0.2,1.1,0.5,1.6,0.7c0.5,0.3,0.9,0.5,1.2,0.8v7.7h-5.8v-2.2c0-0.8-0.1-1.4-0.4-1.7
			c-0.3-0.4-0.7-0.5-1.2-0.5c-0.5,0-1,0.2-1.2,0.5c-0.3,0.4-0.4,0.9-0.4,1.7v9.3c0,0.8,0.1,1.4,0.4,1.7c0.3,0.4,0.7,0.5,1.2,0.5
			c0.6,0,1-0.2,1.2-0.5c0.3-0.4,0.4-0.9,0.4-1.7V62.2z"/>
		<path class="st0" d="M169.6,60.1c0,2.3-0.2,4.2-0.6,5.8c-0.4,1.6-1,2.9-1.7,3.8c-0.7,1-1.6,1.7-2.7,2.2c-1.1,0.5-2.2,0.7-3.5,0.7
			c-1.3,0-2.5-0.2-3.5-0.7c-1.1-0.5-1.9-1.2-2.7-2.2c-0.7-1-1.3-2.3-1.7-3.8c-0.4-1.6-0.6-3.5-0.6-5.8c0-2.2,0.2-4.2,0.6-5.7
			c0.4-1.6,1-2.9,1.7-3.9c0.7-1,1.6-1.7,2.7-2.2c1.1-0.5,2.2-0.7,3.5-0.7c1.3,0,2.5,0.2,3.5,0.7c1.1,0.4,1.9,1.2,2.7,2.2
			c0.7,1,1.3,2.3,1.7,3.9C169.3,55.9,169.6,57.8,169.6,60.1z M161,67c0.5,0,1-0.2,1.2-0.5c0.3-0.4,0.4-0.9,0.4-1.7v-9.3
			c0-0.8-0.1-1.4-0.4-1.7c-0.3-0.4-0.7-0.5-1.2-0.5c-0.6,0-1,0.2-1.2,0.5c-0.3,0.4-0.4,0.9-0.4,1.7v9.3c0,0.8,0.1,1.4,0.4,1.7
			C160,66.8,160.5,67,161,67z"/>
		<path class="st0" d="M181,53.1h-2.2v5.1h3.7v3.5h-3.7V67h3.2v5.1h-11.4V67h1.5V53.1h-1.5V48h14.8v8H181V53.1z"/>
		<path class="st0" d="M196.7,53.1h-2.2v5.1h3.7v3.5h-3.7V67h3.2v5.1h-11.4V67h1.5V53.1h-1.5V48H201v8h-4.3V53.1z"/>
		<path class="st0" d="M213,53.1h-2.9V58h2.1v3.5h-2.1V67h2.9v-4.9h5.4v9.9h-16.6V67h1.5V53.1h-1.5V48h16.6v9.3H213V53.1z"/>
		<path class="st0" d="M230.9,53.1h-2.9V58h2.1v3.5h-2.1V67h2.9v-4.9h5.4v9.9h-16.6V67h1.5V53.1h-1.5V48h16.6v9.3h-5.4V53.1z"/>
	</g>
	<g>
		<path class="st0" d="M113.5,56c-0.2-2.7-1.2-4.6-2.9-5.6c-1.2-0.7-2.6-0.9-3.8-0.8c-0.1-0.7-0.2-1.4-0.3-2.1H74
			c-0.3,1.4-0.4,2.9-0.4,4.4c0,11.1,7.4,20,16.6,20c5.2,0,9.8-2.9,12.9-7.3c0.4-0.1,0.8-0.1,1.2-0.2C109.8,63.9,114.1,63.3,113.5,56
			z M104.5,62.2c1.5-3,2.3-6.5,2.3-10.2c0,0,0-0.1,0-0.1c0.8-0.1,1.7,0,2.5,0.5c1,0.6,1.7,1.9,1.8,3.8
			C111.6,61.2,109.7,61.6,104.5,62.2z"/>
	</g>
	<path class="st0" d="M79.4,43.4c0,0,0.3-0.2,0.7-0.6c0.2-0.2,0.5-0.5,0.7-0.8c0.3-0.3,0.5-0.7,0.8-1.1c0.3-0.4,0.5-0.9,0.7-1.4
		c0.2-0.5,0.3-1.1,0.4-1.7l0-0.1l0,0l0-0.1c0-0.1,0-0.2,0-0.2c0-0.1,0-0.3,0-0.4c0-0.3-0.1-0.6-0.2-0.9c-0.2-0.6-0.5-1.1-0.9-1.6
		c-0.4-0.5-0.9-1-1.3-1.5c-0.5-0.5-0.9-1.1-1.3-1.7c-0.4-0.6-0.6-1.3-0.7-1.9c-0.1-0.6-0.1-1.3,0-1.8c0.1-0.5,0.2-1,0.3-1.4
		c0.1-0.4,0.3-0.8,0.4-1.1c0.1-0.3,0.2-0.5,0.3-0.6c0.1-0.1,0.1-0.2,0.1-0.2s0,0.1-0.1,0.2c0,0.2-0.1,0.4-0.2,0.7
		c-0.1,0.3-0.1,0.7-0.2,1.1c-0.1,0.4-0.1,0.9-0.1,1.4c0,0.5,0.1,1,0.2,1.6c0.1,0.5,0.4,1.1,0.8,1.6c0.3,0.5,0.8,1,1.2,1.5
		c0.5,0.5,1,1,1.4,1.6c0.5,0.6,0.9,1.3,1.1,2c0.1,0.4,0.2,0.8,0.2,1.1c0,0.2,0,0.4,0,0.6c0,0.1,0,0.2,0,0.3l0,0.1l0,0.1l0,0.1
		c-0.1,0.7-0.3,1.4-0.6,1.9c-0.3,0.6-0.6,1.1-1,1.5c-0.7,0.9-1.5,1.4-2,1.7C79.8,43.3,79.4,43.4,79.4,43.4z"/>
	<path class="st0" d="M98,43.5c0,0,0.3-0.2,0.7-0.6c0.2-0.2,0.5-0.4,0.7-0.7c0.3-0.3,0.6-0.6,0.8-1c0.3-0.4,0.5-0.8,0.7-1.3
		c0.1-0.3,0.2-0.5,0.2-0.8c0.1-0.3,0.1-0.5,0.1-0.8c0-0.6,0-1.1-0.3-1.6c-0.2-0.5-0.6-1-1-1.5c-0.4-0.5-0.8-1-1.3-1.5
		c-0.4-0.5-0.8-1.1-1.2-1.6c-0.3-0.6-0.6-1.2-0.7-1.8c-0.1-0.6-0.1-1.2-0.1-1.7c0.1-0.5,0.2-1,0.3-1.4c0.1-0.4,0.3-0.7,0.4-1
		c0.1-0.3,0.2-0.5,0.3-0.6c0.1-0.1,0.1-0.2,0.1-0.2s0,0.1-0.1,0.2c0,0.2-0.1,0.4-0.2,0.7c-0.1,0.3-0.1,0.6-0.2,1
		c-0.1,0.4-0.1,0.8-0.1,1.3c0,0.5,0.1,1,0.2,1.5c0.2,0.5,0.4,1,0.7,1.5c0.7,1,1.6,1.9,2.5,2.9c0.4,0.5,0.9,1.2,1.1,1.9
		c0.3,0.7,0.4,1.5,0.3,2.2c-0.1,0.7-0.3,1.3-0.6,1.9c-0.3,0.6-0.6,1-1,1.4c-0.7,0.8-1.5,1.2-2,1.5C98.4,43.4,98,43.5,98,43.5z"/>
	<path class="st0" d="M87.7,35.4c0,0,0.3-0.2,0.7-0.6c0.4-0.4,1-1,1.5-1.8c0.3-0.4,0.5-0.8,0.8-1.3c0.2-0.5,0.4-1,0.5-1.6l0-0.2
		l0-0.2l0-0.2l0-0.2c0-0.3,0-0.6-0.1-0.8c-0.1-0.6-0.3-1.1-0.6-1.7c-0.6-1.1-1.4-2.2-1.9-3.5c-0.2-0.6-0.4-1.3-0.4-1.9
		c0-0.6,0-1.2,0.1-1.7c0-0.3,0.1-0.5,0.2-0.7c0.1-0.2,0.2-0.4,0.2-0.6c0.1-0.2,0.2-0.4,0.3-0.5c0.1-0.2,0.2-0.3,0.2-0.4
		c0.1-0.3,0.3-0.4,0.4-0.6c0.1-0.1,0.1-0.2,0.1-0.2s0,0.1-0.1,0.2c-0.1,0.1-0.1,0.4-0.2,0.6c0,0.1-0.1,0.3-0.1,0.5
		c0,0.2-0.1,0.4-0.1,0.5c0,0.2-0.1,0.4-0.1,0.6c0,0.2-0.1,0.4-0.1,0.7c0,0.5,0,1,0.1,1.5c0.1,0.5,0.3,1,0.5,1.6
		c0.2,0.5,0.6,1.1,0.9,1.6c0.3,0.5,0.7,1.1,1.1,1.7c0.3,0.6,0.6,1.3,0.7,2.1c0,0.4,0.1,0.7,0,1.1l0,0.3l0,0.2l0,0.3l-0.1,0.3
		c-0.2,0.7-0.4,1.3-0.8,1.8c-0.3,0.5-0.7,1-1,1.4c-0.4,0.4-0.7,0.7-1.1,0.9c-0.3,0.3-0.6,0.4-0.9,0.6C88,35.3,87.7,35.4,87.7,35.4z"
		/>
	<g>
		<path class="st1" d="M58.6,6.1v76h189.3v-76H58.6z M123.3,78.3H62.4V9.9h60.9V78.3z M243.5,78.3H127.1v-36h116.5V78.3z
			 M243.5,38.5H127.1V9.9h116.5V38.5z"/>
	</g>
	<path class="st0" d="M245.3,0.8h-4.1v0.5h4.1V0.8L245.3,0.8z M237.2,0.8h-4.1v0.5h4.1V0.8L237.2,0.8z M229,0.8H225v0.5h4.1V0.8
		L229,0.8z M220.9,0.8h-4.1v0.5h4.1V0.8L220.9,0.8z M212.8,0.8h-4.1v0.5h4.1V0.8L212.8,0.8z M204.7,0.8h-4.1v0.5h4.1V0.8L204.7,0.8z
		 M196.6,0.8h-4.1v0.5h4.1V0.8L196.6,0.8z M188.4,0.8h-4.1v0.5h4.1V0.8L188.4,0.8z M180.3,0.8h-4.1v0.5h4.1V0.8L180.3,0.8z
		 M172.2,0.8h-4.1v0.5h4.1V0.8L172.2,0.8z M164.1,0.8H160v0.5h4.1V0.8L164.1,0.8z M155.9,0.8h-4.1v0.5h4.1V0.8L155.9,0.8z
		 M147.8,0.8h-4.1v0.5h4.1V0.8L147.8,0.8z M139.7,0.8h-4.1v0.5h4.1V0.8L139.7,0.8z M131.6,0.8h-4.1v0.5h4.1V0.8L131.6,0.8z
		 M123.5,0.8h-4.1v0.5h4.1V0.8L123.5,0.8z M115.3,0.8h-4.1v0.5h4.1V0.8L115.3,0.8z M107.2,0.8h-4.1v0.5h4.1V0.8L107.2,0.8z
		 M99.1,0.8H95v0.5h4.1V0.8L99.1,0.8z M91,0.8h-4.1v0.5H91V0.8L91,0.8z M82.9,0.8h-4.1v0.5h4.1V0.8L82.9,0.8z M74.7,0.8h-4.1v0.5
		h4.1V0.8L74.7,0.8z M66.6,0.8h-4.1v0.5h4.1V0.8L66.6,0.8z M58.5,0.8h-4.1v0.5h4.1V0.8L58.5,0.8z M54,3.9h-0.5V8H54V3.9L54,3.9z
		 M54,12h-0.5v4.1H54V12L54,12z M54,20.2h-0.5v4.1H54V20.2L54,20.2z M54,28.3h-0.5v4.1H54V28.3L54,28.3z M54,36.4h-0.5v4.1H54V36.4
		L54,36.4z M54,44.5h-0.5v4.1H54V44.5L54,44.5z M54,52.6h-0.5v4.1H54V52.6L54,52.6z M54,60.8h-0.5v4.1H54V60.8L54,60.8z M54,68.9
		h-0.5V73H54V68.9L54,68.9z M54,77h-0.5v4.1H54V77L54,77z M54,85.1h-0.5v2H54l0,0l0,0l0,0l0,0c0.6,0,1.6,0,1.6,0v-0.5H54V85.1
		L54,85.1z M63.7,86.6h-4.1v0.5h4.1V86.6L63.7,86.6z M71.8,86.6h-4.1v0.5h4.1V86.6L71.8,86.6z M79.9,86.6h-4.1v0.5h4.1V86.6
		L79.9,86.6z M88.1,86.6H84v0.5h4.1V86.6L88.1,86.6z M96.2,86.6h-4.1v0.5h4.1V86.6L96.2,86.6z M104.3,86.6h-4.1v0.5h4.1V86.6
		L104.3,86.6z M112.4,86.6h-4.1v0.5h4.1V86.6L112.4,86.6z M120.6,86.6h-4.1v0.5h4.1V86.6L120.6,86.6z M128.7,86.6h-4.1v0.5h4.1V86.6
		L128.7,86.6z M136.8,86.6h-4.1v0.5h4.1V86.6L136.8,86.6z M144.9,86.6h-4.1v0.5h4.1V86.6L144.9,86.6z M153,86.6H149v0.5h4.1V86.6
		L153,86.6z M161.2,86.6h-4.1v0.5h4.1V86.6L161.2,86.6z M169.3,86.6h-4.1v0.5h4.1V86.6L169.3,86.6z M177.4,86.6h-4.1v0.5h4.1V86.6
		L177.4,86.6z M185.5,86.6h-4.1v0.5h4.1V86.6L185.5,86.6z M193.7,86.6h-4.1v0.5h4.1V86.6L193.7,86.6z M201.8,86.6h-4.1v0.5h4.1V86.6
		L201.8,86.6z M209.9,86.6h-4.1v0.5h4.1V86.6L209.9,86.6z M218,86.6H214v0.5h4.1V86.6L218,86.6z M226.1,86.6h-4.1v0.5h4.1V86.6
		L226.1,86.6z M234.3,86.6h-4.1v0.5h4.1V86.6L234.3,86.6z M242.4,86.6h-4.1v0.5h4.1V86.6L242.4,86.6z M250.5,86.6h-4.1v0.5h4.1V86.6
		L250.5,86.6z M253.4,81.9h-0.5v4.1h0.5V81.9L253.4,81.9z M253.4,73.8h-0.5v4.1h0.5V73.8L253.4,73.8z M253.4,65.6h-0.5v4.1h0.5V65.6
		L253.4,65.6z M253.4,57.5h-0.5v4.1h0.5V57.5L253.4,57.5z M253.4,49.4h-0.5v4.1h0.5V49.4L253.4,49.4z M253.4,41.3h-0.5v4.1h0.5V41.3
		L253.4,41.3z M253.4,33.2h-0.5v4.1h0.5V33.2L253.4,33.2z M253.4,25h-0.5v4.1h0.5V25L253.4,25z M253.4,16.9h-0.5V21h0.5V16.9
		L253.4,16.9z M253.4,8.8h-0.5v4.1h0.5V8.8L253.4,8.8z M253.4,0.8h-4.1v0.5h3.5v3.4h0.5V0.8L253.4,0.8z"/>
</g>
</svg>
